<svg width="48" height="31" viewBox="0 0 48 31" fill="none" xmlns="http://www.w3.org/2000/svg">
<rect x="0.112068" y="0.112068" width="46.8384" height="30.2545" rx="5.49062" fill="white"/>
<rect x="0.112068" y="0.112068" width="46.8384" height="30.2545" rx="5.49062" stroke="#D6DCE5" stroke-width="0.224107"/>
<path d="M15.3011 11.3058C15.6121 10.9168 15.8232 10.3946 15.7675 9.86084C15.3122 9.88348 14.7567 10.1612 14.4351 10.5505C14.1463 10.8838 13.8907 11.428 13.9573 11.9393C14.4684 11.9837 14.9789 11.6839 15.3011 11.3058Z" fill="#000008"/>
<path d="M15.7617 12.0392C15.0196 11.995 14.3885 12.4604 14.0341 12.4604C13.6795 12.4604 13.1368 12.0615 12.5498 12.0722C11.7858 12.0834 11.0768 12.5154 10.6891 13.2025C9.89169 14.5769 10.4787 16.6157 11.2542 17.7351C11.6308 18.289 12.0846 18.8987 12.6826 18.8768C13.2477 18.8547 13.4691 18.511 14.156 18.511C14.8423 18.511 15.0418 18.8768 15.6399 18.8658C16.2602 18.8547 16.6479 18.3117 17.0245 17.7573C17.4565 17.126 17.6334 16.5164 17.6445 16.483C17.6334 16.4719 16.4485 16.0173 16.4375 14.6543C16.4263 13.513 17.3678 12.9701 17.4121 12.9365C16.8804 12.1501 16.0497 12.0615 15.7617 12.0392Z" fill="#000008"/>
<path d="M22.2238 10.4946C23.8368 10.4946 24.9601 11.6065 24.9601 13.2254C24.9601 14.85 23.8137 15.9677 22.1833 15.9677H20.3974V18.8078H19.107V10.4946L22.2238 10.4946ZM20.3974 14.8845H21.878C23.0014 14.8845 23.6408 14.2797 23.6408 13.2312C23.6408 12.1827 23.0014 11.5835 21.8837 11.5835H20.3974V14.8845Z" fill="#000008"/>
<path d="M25.2972 17.0853C25.2972 16.0252 26.1095 15.3743 27.5499 15.2936L29.2089 15.1957V14.7291C29.2089 14.055 28.7538 13.6517 27.9935 13.6517C27.2732 13.6517 26.8238 13.9973 26.7144 14.5389H25.5392C25.6083 13.4443 26.5415 12.6377 28.0395 12.6377C29.5085 12.6377 30.4475 13.4155 30.4475 14.6311V18.8078H29.2549V17.8112H29.2262C28.8749 18.4852 28.1086 18.9115 27.3136 18.9115C26.1268 18.9115 25.2972 18.1741 25.2972 17.0853ZM29.2089 16.538V16.0599L27.7168 16.152C26.9736 16.2039 26.5531 16.5323 26.5531 17.0508C26.5531 17.5807 26.9909 17.9264 27.6592 17.9264C28.5291 17.9264 29.2089 17.3272 29.2089 16.538Z" fill="#000008"/>
<path d="M31.5734 21.0374V20.0292C31.6654 20.0522 31.8727 20.0522 31.9765 20.0522C32.5526 20.0522 32.8637 19.8103 33.0538 19.1881C33.0538 19.1765 33.1633 18.8194 33.1633 18.8136L30.9742 12.7472H32.3221L33.8547 17.6787H33.8776L35.4102 12.7472H36.7237L34.4537 19.1246C33.9354 20.5938 33.3362 21.0662 32.0803 21.0662C31.9765 21.0662 31.6654 21.0546 31.5734 21.0374Z" fill="#000008"/>
</svg>
