<svg width="48" height="31" viewBox="0 0 48 31" fill="none" xmlns="http://www.w3.org/2000/svg">
<rect x="0.112068" y="0.112068" width="46.8384" height="30.2545" rx="5.49062" fill="white"/>
<rect x="0.112068" y="0.112068" width="46.8384" height="30.2545" rx="5.49062" stroke="#D6DCE5" stroke-width="0.224107"/>
<path d="M22.5179 18.8384H21.4695V10.6802H24.249C24.9534 10.6802 25.554 10.915 26.0455 11.3846C26.5479 11.8542 26.7991 12.4276 26.7991 13.1047C26.7991 13.7982 26.5479 14.3716 26.0455 14.8357C25.5595 15.2999 24.9588 15.5293 24.249 15.5293H22.5179V18.8384ZM22.5179 11.6849V14.5299H24.2708C24.6858 14.5299 25.0353 14.388 25.3083 14.1095C25.5868 13.831 25.7288 13.4924 25.7288 13.1102C25.7288 12.7334 25.5868 12.4003 25.3083 12.1218C25.0353 11.8324 24.6913 11.6904 24.2708 11.6904H22.5179V11.6849Z" fill="#3C4043"/>
<path d="M29.5402 13.0719C30.3156 13.0719 30.9272 13.2795 31.375 13.6945C31.8228 14.1095 32.0466 14.6774 32.0466 15.3982V18.8384H31.0474V18.063H31.0037C30.5723 18.7019 29.9934 19.0186 29.2726 19.0186C28.6556 19.0186 28.1423 18.8384 27.7273 18.4726C27.3123 18.1067 27.1048 17.6535 27.1048 17.1074C27.1048 16.5286 27.3232 16.0699 27.76 15.7313C28.1969 15.3873 28.7812 15.218 29.5075 15.218C30.13 15.218 30.6433 15.3327 31.0419 15.562V15.3217C31.0419 14.9559 30.8999 14.6501 30.6105 14.3934C30.3211 14.1368 29.9825 14.0112 29.5948 14.0112C29.0105 14.0112 28.5464 14.2569 28.2078 14.7538L27.285 14.175C27.7928 13.4378 28.5464 13.0719 29.5402 13.0719ZM28.186 17.1238C28.186 17.3968 28.3006 17.6262 28.5355 17.8064C28.7648 17.9866 29.0378 18.0794 29.3491 18.0794C29.7914 18.0794 30.1846 17.9156 30.5286 17.5879C30.8726 17.2603 31.0474 16.878 31.0474 16.4357C30.7197 16.1791 30.2665 16.048 29.6822 16.048C29.2563 16.048 28.9013 16.1518 28.6174 16.3538C28.3279 16.5668 28.186 16.8234 28.186 17.1238Z" fill="#3C4043"/>
<path d="M37.7476 13.2522L34.2528 21.2903H33.1716L34.4712 18.4781L32.1668 13.2522H33.3081L34.9682 17.2603H34.99L36.6063 13.2522H37.7476Z" fill="#3C4043"/>
<path d="M18.3476 14.8685C18.3476 14.5267 18.317 14.1996 18.2602 13.885H13.8655V15.6871L16.3965 15.6876C16.2938 16.2872 15.9634 16.7983 15.4572 17.1391V18.3082H16.9638C17.8435 17.494 18.3476 16.2905 18.3476 14.8685Z" fill="#4285F4"/>
<path d="M15.4578 17.1391C15.0384 17.422 14.4983 17.5874 13.8665 17.5874C12.6461 17.5874 11.6107 16.7651 11.24 15.6565H9.68587V16.8623C10.4558 18.3902 12.0383 19.4386 13.8665 19.4386C15.1301 19.4386 16.1917 19.0231 16.9644 18.3077L15.4578 17.1391Z" fill="#34A853"/>
<path d="M11.0936 14.762C11.0936 14.4508 11.1454 14.1499 11.2399 13.867V12.6613H9.68582C9.36746 13.2931 9.18835 14.0063 9.18835 14.762C9.18835 15.5178 9.36801 16.2309 9.68582 16.8627L11.2399 15.657C11.1454 15.3742 11.0936 15.0733 11.0936 14.762Z" fill="#FABB05"/>
<path d="M13.8665 11.9361C14.5562 11.9361 15.1738 12.1737 15.6615 12.6378L16.9966 11.3038C16.1857 10.5486 15.1285 10.085 13.8665 10.085C12.0389 10.085 10.4558 11.1334 9.68582 12.6613L11.2399 13.867C11.6107 12.7585 12.6461 11.9361 13.8665 11.9361Z" fill="#E94235"/>
</svg>
