<svg width="48" height="31" viewBox="0 0 48 31" fill="none" xmlns="http://www.w3.org/2000/svg">
<rect x="0.112068" y="0.112068" width="46.8384" height="30.2545" rx="5.49062" fill="white"/>
<rect x="0.112068" y="0.112068" width="46.8384" height="30.2545" rx="5.49062" stroke="#D6DCE5" stroke-width="0.224107"/>
<path d="M26.8798 9.07251H20.0165V21.406H26.8798V9.07251Z" fill="#FF5F00"/>
<path d="M20.4523 15.2393C20.4512 14.0515 20.7204 12.879 21.2394 11.8106C21.7585 10.7422 22.5138 9.80585 23.4482 9.0725C22.2911 8.16299 20.9014 7.59737 19.438 7.44031C17.9746 7.28324 16.4966 7.54106 15.1728 8.1843C13.8491 8.82754 12.733 9.83026 11.9521 11.0778C11.1713 12.3254 10.7572 13.7675 10.7572 15.2393C10.7572 16.711 11.1713 18.1531 11.9521 19.4007C12.733 20.6483 13.8491 21.651 15.1728 22.2942C16.4966 22.9375 17.9746 23.1953 19.438 23.0382C20.9014 22.8811 22.2911 22.3155 23.4482 21.406C22.5138 20.6727 21.7585 19.7363 21.2394 18.6679C20.7204 17.5995 20.4512 16.4271 20.4523 15.2393Z" fill="#EB001B"/>
<path d="M36.1387 15.2393C36.1388 16.711 35.7248 18.1531 34.944 19.4007C34.1632 20.6482 33.0471 21.6509 31.7234 22.2942C30.3996 22.9374 28.9216 23.1953 27.4582 23.0382C25.9949 22.8811 24.6052 22.3155 23.4482 21.406C24.3817 20.6719 25.1364 19.7355 25.6554 18.6672C26.1744 17.599 26.444 16.4269 26.444 15.2393C26.444 14.0516 26.1744 12.8795 25.6554 11.8113C25.1364 10.7431 24.3817 9.80659 23.4482 9.0725C24.6052 8.16298 25.9949 7.59737 27.4582 7.4403C28.9216 7.28324 30.3996 7.54107 31.7234 8.18432C33.0471 8.82757 34.1632 9.83028 34.944 11.0779C35.7248 12.3254 36.1388 13.7675 36.1387 15.2393Z" fill="#F79E1B"/>
<path d="M35.3904 20.0997V19.8472H35.4922V19.7958H35.2329V19.8472H35.3348V20.0997H35.3904ZM35.8938 20.0997V19.7953H35.8143L35.7229 20.0047L35.6315 19.7953H35.5519V20.0997H35.6081V19.8701L35.6938 20.0681H35.752L35.8377 19.8696V20.0997H35.8938Z" fill="#F79E1B"/>
</svg>
