<svg width="48" height="31" viewBox="0 0 48 31" fill="none" xmlns="http://www.w3.org/2000/svg">
<rect x="0.112068" y="0.112068" width="46.8384" height="30.2545" rx="5.49062" fill="white"/>
<rect x="0.112068" y="0.112068" width="46.8384" height="30.2545" rx="5.49062" stroke="#D6DCE5" stroke-width="0.224107"/>
<path fill-rule="evenodd" clip-rule="evenodd" d="M10.4213 10.8701H7.7338C7.54989 10.8701 7.39348 11.0038 7.3648 11.1852L6.27784 18.076C6.25624 18.212 6.36155 18.3345 6.49949 18.3345H7.78252C7.96643 18.3345 8.12284 18.2009 8.15152 18.0191L8.44469 16.1605C8.47297 15.9785 8.62976 15.8451 8.81329 15.8451H9.66406C11.4344 15.8451 12.4561 14.9884 12.723 13.291C12.8432 12.5484 12.7281 11.9649 12.3802 11.5562C11.9983 11.1076 11.3207 10.8701 10.4213 10.8701ZM10.7314 13.3869C10.5844 14.3511 9.84758 14.3511 9.13513 14.3511H8.72958L9.01409 12.5503C9.03099 12.4415 9.12529 12.3613 9.23533 12.3613H9.42121C9.90652 12.3613 10.3644 12.3613 10.601 12.6379C10.7419 12.803 10.7852 13.0481 10.7314 13.3869ZM18.4549 13.356H17.1679C17.0582 13.356 16.9635 13.4361 16.9466 13.5451L16.8897 13.9049L16.7996 13.7745C16.521 13.3701 15.8998 13.235 15.2797 13.235C13.8574 13.235 12.6428 14.312 12.4062 15.8229C12.2833 16.5764 12.4581 17.297 12.8856 17.7996C13.2779 18.2616 13.8391 18.4542 14.5066 18.4542C15.6525 18.4542 16.2881 17.7174 16.2881 17.7174L16.2306 18.0751C16.209 18.2118 16.3143 18.3344 16.4514 18.3344H17.6107C17.7951 18.3344 17.9506 18.2007 17.9797 18.0189L18.6753 13.6145C18.6973 13.4791 18.5924 13.356 18.4549 13.356ZM16.6609 15.8605C16.5367 16.5957 15.9531 17.0892 15.209 17.0892C14.8353 17.0892 14.5365 16.9693 14.3448 16.7422C14.1546 16.5168 14.0822 16.1956 14.1428 15.8382C14.2588 15.1092 14.8522 14.5997 15.585 14.5997C15.9504 14.5997 16.2475 14.721 16.4432 14.9501C16.6392 15.1816 16.7171 15.5045 16.6609 15.8605ZM24.0158 13.3558H25.3091C25.4903 13.3558 25.5959 13.5589 25.493 13.7074L21.1916 19.9156C21.1219 20.0161 21.0072 20.0759 20.8846 20.0759H19.5929C19.4111 20.0759 19.3049 19.8712 19.4102 19.7223L20.7495 17.832L19.325 13.652C19.2758 13.5067 19.3831 13.3558 19.5376 13.3558H20.8084C20.9736 13.3558 21.1192 13.4641 21.1669 13.6222L21.9228 16.1467L23.7066 13.5196C23.7765 13.417 23.8925 13.3558 24.0158 13.3558Z" fill="#253B80"/>
<path fill-rule="evenodd" clip-rule="evenodd" d="M38.0383 18.0754L39.1413 11.0586C39.1582 10.9497 39.2526 10.8695 39.3622 10.8691H40.604C40.7411 10.8691 40.8464 10.9921 40.8247 11.1281L39.737 18.0184C39.7087 18.2003 39.5523 18.3339 39.3681 18.3339H38.2591C38.122 18.3339 38.0167 18.2114 38.0383 18.0754ZM29.5914 10.8695H26.9034C26.7199 10.8695 26.5635 11.0031 26.5348 11.1846L25.4479 18.0754C25.4262 18.2114 25.5315 18.3339 25.6688 18.3339H27.048C27.1762 18.3339 27.2859 18.2405 27.3059 18.1132L27.6143 16.1599C27.6427 15.9779 27.7994 15.8445 27.9829 15.8445H28.8333C30.604 15.8445 31.6255 14.9878 31.8926 13.2904C32.0132 12.5478 31.8973 11.9643 31.5496 11.5556C31.1679 11.107 30.4909 10.8695 29.5914 10.8695ZM29.9015 13.3863C29.7549 14.3505 29.018 14.3505 28.3052 14.3505H27.9L28.185 12.5496C28.2019 12.4409 28.2953 12.3607 28.4057 12.3607H28.5916C29.0766 12.3607 29.5349 12.3607 29.7713 12.6373C29.9124 12.8024 29.9553 13.0475 29.9015 13.3863ZM37.6243 13.3553H36.3382C36.2276 13.3553 36.1338 13.4355 36.1172 13.5444L36.0603 13.9043L35.9699 13.7739C35.6913 13.3695 35.0705 13.2344 34.4504 13.2344C33.0281 13.2344 31.8138 14.3114 31.5773 15.8223C31.4547 16.5758 31.6287 17.2964 32.0563 17.799C32.4493 18.261 33.0097 18.4536 33.6773 18.4536C34.8232 18.4536 35.4586 17.7168 35.4586 17.7168L35.4013 18.0744C35.3796 18.2112 35.4849 18.3337 35.623 18.3337H36.7817C36.9652 18.3337 37.1216 18.2001 37.1504 18.0183L37.8463 13.6139C37.8676 13.4784 37.7623 13.3553 37.6243 13.3553ZM35.8305 15.8599C35.707 16.5951 35.1227 17.0886 34.3784 17.0886C34.0054 17.0886 33.706 16.9687 33.5142 16.7416C33.324 16.5161 33.2525 16.195 33.3123 15.8375C33.4289 15.1086 34.0216 14.5991 34.7544 14.5991C35.12 14.5991 35.4169 14.7204 35.6128 14.9495C35.8095 15.1809 35.8874 15.5039 35.8305 15.8599Z" fill="#179BD7"/>
</svg>
