<svg width="48" height="31" viewBox="0 0 48 31" fill="none" xmlns="http://www.w3.org/2000/svg">
<rect x="0.112068" y="0.112068" width="46.8384" height="30.2545" rx="5.49062" fill="white"/>
<rect x="0.112068" y="0.112068" width="46.8384" height="30.2545" rx="5.49062" stroke="#D6DCE5" stroke-width="0.224107"/>
<path d="M23.2462 10.3451L21.072 20.5087H18.4429L20.6175 10.3451H23.2462ZM34.3079 16.9078L35.6921 13.091L36.4886 16.9078H34.3079ZM37.2413 20.5087H39.6732L37.5511 10.3451H35.3064C34.802 10.3451 34.3764 10.6385 34.187 11.0908L30.2425 20.5087H33.0035L33.5516 18.991H36.9248L37.2413 20.5087ZM30.3795 17.1902C30.3908 14.5077 26.6699 14.36 26.6956 13.1618C26.7034 12.7967 27.0511 12.4093 27.8106 12.3099C28.1879 12.2607 29.2253 12.2231 30.4033 12.7651L30.8646 10.6099C30.2319 10.3802 29.4177 10.1592 28.4051 10.1592C25.8065 10.1592 23.9774 11.5408 23.962 13.5192C23.9456 14.9822 25.2677 15.7986 26.2639 16.285C27.2882 16.7833 27.6324 17.1024 27.6279 17.5479C27.6211 18.2302 26.8108 18.5306 26.0548 18.5425C24.7327 18.5634 23.9655 18.1858 23.354 17.9008L22.8776 20.1278C23.4917 20.4099 24.6256 20.655 25.802 20.6676C28.5636 20.6676 30.3705 19.303 30.3795 17.1902ZM19.4893 10.3451L15.2296 20.5087H12.45L10.3539 12.3974C10.2265 11.8979 10.1158 11.7152 9.72885 11.5045C9.09739 11.1619 8.05353 10.8399 7.13513 10.6404L7.19786 10.3451H11.6715C12.2415 10.3451 12.7546 10.7247 12.8839 11.3813L13.9911 17.2629L16.727 10.3451H19.4893Z" fill="#1434CB"/>
</svg>
